<?xml version="1.0" standalone="no"?>
<!DOCTYPE svg PUBLIC "-//W3C//DTD SVG 20010904//EN"
 "http://www.w3.org/TR/2001/REC-SVG-20010904/DTD/svg10.dtd">
<svg version="1.0" xmlns="http://www.w3.org/2000/svg"
 width="128.000000pt" height="128.000000pt" viewBox="0 0 128.000000 128.000000"
 preserveAspectRatio="xMidYMid meet">
<metadata>
Created by potrace 1.16, written by Peter Selinger 2001-2019
</metadata>
<g transform="translate(0.000000,128.000000) scale(0.100000,-0.100000)"
fill="#000000" stroke="none">
<path d="M110 1250 c0 -25 -4 -30 -25 -30 -20 0 -25 -5 -25 -25 0 -21 -5 -25
-30 -25 l-30 0 0 -535 0 -535 30 0 c25 0 30 -4 30 -25 0 -20 5 -25 25 -25 20
0 25 -5 25 -25 l0 -25 535 0 535 0 0 25 c0 20 5 25 25 25 20 0 25 5 25 25 0
20 5 25 25 25 l25 0 0 535 0 535 -25 0 c-20 0 -25 5 -25 25 0 20 -5 25 -25 25
-21 0 -25 5 -25 30 l0 30 -535 0 -535 0 0 -30z m910 -170 l0 -120 -80 0 -80 0
0 -80 0 -80 80 0 80 0 0 -120 0 -120 -80 0 -80 0 0 -200 0 -200 -120 0 -120 0
0 200 0 200 -60 0 -60 0 0 120 0 120 60 0 60 0 0 160 0 160 40 0 40 0 0 40 0
40 160 0 160 0 0 -120z"/>
</g>
</svg>
