<?xml version="1.0" standalone="no"?>
<!DOCTYPE svg PUBLIC "-//W3C//DTD SVG 20010904//EN"
 "http://www.w3.org/TR/2001/REC-SVG-20010904/DTD/svg10.dtd">
<svg version="1.0" xmlns="http://www.w3.org/2000/svg"
 width="512.000000pt" height="512.000000pt" viewBox="0 0 512.000000 512.000000"
 preserveAspectRatio="xMidYMid meet">
<metadata>
Created by potrace 1.16, written by Peter Selinger 2001-2019
</metadata>
<g transform="translate(0.000000,512.000000) scale(0.100000,-0.100000)"
fill="#000000" stroke="none">
<path d="M1188 4785 c-246 -34 -419 -116 -578 -275 -163 -163 -241 -330 -275
-588 -22 -163 -22 -2562 -1 -2723 35 -256 108 -417 263 -576 171 -174 336
-253 601 -288 168 -22 2556 -22 2724 0 258 34 425 112 588 275 163 163 241
330 275 588 22 168 22 2556 0 2724 -34 258 -112 425 -275 588 -161 161 -332
241 -587 275 -152 20 -2586 20 -2735 0z m2643 -817 c51 -15 116 -71 134 -115
12 -29 15 -94 15 -334 l0 -299 -235 0 -235 0 0 260 0 260 -115 0 -115 0 0
-260 0 -260 -255 0 -255 0 0 -115 0 -115 255 0 255 0 0 -260 0 -261 113 3 112
3 3 258 2 257 235 0 235 0 -2 -858 -3 -859 -29 -41 c-18 -26 -47 -51 -79 -67
l-51 -25 -568 0 c-312 0 -568 2 -568 4 0 2 6 19 14 37 26 64 38 181 27 266
-25 180 -127 305 -462 566 -146 113 -189 176 -174 255 15 79 46 117 227 276
94 82 170 191 200 289 19 60 23 94 23 207 -1 121 -3 143 -28 213 -34 97 -82
175 -155 250 l-56 57 114 0 115 0 110 81 c61 44 115 85 120 91 7 6 -161 8
-515 5 -478 -4 -534 -6 -620 -25 -163 -34 -324 -107 -420 -189 -21 -18 -41
-33 -44 -33 -3 0 -6 74 -6 165 0 146 2 170 20 205 23 44 74 89 122 107 47 17
2483 18 2539 1z m-2041 -380 c214 -65 395 -398 394 -728 0 -85 -4 -116 -22
-160 -49 -121 -129 -193 -257 -232 -61 -19 -78 -20 -140 -11 -119 17 -213 74
-292 178 -163 215 -219 560 -123 759 77 163 267 246 440 194z m-609 -1145 c8
-9 55 -36 104 -59 117 -55 236 -79 358 -70 48 3 87 2 87 -3 0 -5 -7 -28 -15
-51 -35 -98 -12 -221 59 -320 20 -28 36 -55 36 -60 0 -6 -26 -10 -57 -10 -131
0 -450 -60 -555 -104 -21 -9 -40 -16 -43 -16 -3 0 -5 160 -5 355 0 197 4 355
9 355 5 0 15 -8 22 -17z m924 -790 c285 -207 353 -301 346 -475 l-1 -38 -567
0 c-532 0 -571 2 -608 19 -92 43 -125 108 -125 249 l0 99 52 52 c55 55 172
120 266 147 97 29 263 52 378 53 l110 1 149 -107z"/>
</g>
</svg>
